<svg width="48" height="48" viewBox="0 0 48 48" fill="none" xmlns="http://www.w3.org/2000/svg">
<rect width="48" height="48" rx="24" fill="white"/>
<path d="M29 14H19C16.2386 14 14 16.2386 14 19V29C14 31.7614 16.2386 34 19 34H29C31.7614 34 34 31.7614 34 29V19C34 16.2386 31.7614 14 29 14Z" stroke="#130421" stroke-width="2" stroke-linecap="round" stroke-linejoin="round"/>
<path d="M27.9997 23.3703C28.1231 24.2025 27.981 25.0525 27.5935 25.7993C27.206 26.5461 26.5929 27.1517 25.8413 27.53C25.0898 27.9082 24.2382 28.0399 23.4075 27.9062C22.5768 27.7726 21.8095 27.3804 21.2145 26.7855C20.6196 26.1905 20.2274 25.4232 20.0938 24.5925C19.9601 23.7619 20.0918 22.9102 20.47 22.1587C20.8483 21.4072 21.4539 20.794 22.2007 20.4065C22.9475 20.019 23.7975 19.8769 24.6297 20.0003C25.4786 20.1262 26.2646 20.5218 26.8714 21.1286C27.4782 21.7355 27.8738 22.5214 27.9997 23.3703Z" stroke="#130421" stroke-width="2" stroke-linecap="round" stroke-linejoin="round"/>
<path d="M29.5 18.5H29.51" stroke="#130421" stroke-width="2" stroke-linecap="round" stroke-linejoin="round"/>
</svg>
