<svg width="10" height="10" viewBox="0 0 10 10" fill="none" xmlns="http://www.w3.org/2000/svg">
<path d="M9.28604 5.71449H5.71449V9.28604C5.71449 9.67891 5.39305 10.0003 5.00017 10.0003C4.6073 10.0003 4.28586 9.67891 4.28586 9.28604V5.71449H0.714311C0.32144 5.71449 0 5.39305 0 5.00017C0 4.6073 0.32144 4.28586 0.714311 4.28586H4.28586V0.714311C4.28586 0.32144 4.6073 0 5.00017 0C5.39305 0 5.71449 0.32144 5.71449 0.714311V4.28586H9.28604C9.67891 4.28586 10.0003 4.6073 10.0003 5.00017C10.0003 5.39305 9.67891 5.71449 9.28604 5.71449Z" fill="#8C8594"/>
</svg>
