<svg width="25" height="25" viewBox="0 0 25 25" fill="none" xmlns="http://www.w3.org/2000/svg">
<path d="M2.1623 9.6082C2.02433 8.22847 3.1078 7.03125 4.49441 7.03125H20.5048C21.8915 7.03125 22.9749 8.22847 22.837 9.6082L22.3265 14.7129C22.2599 15.3785 21.6998 15.8854 21.0309 15.8854H3.96838C3.29944 15.8854 2.73933 15.3785 2.67276 14.7129L2.1623 9.6082Z" stroke="#130421" stroke-width="1.52978"/>
<path d="M3.02691 16.7035C3.0045 16.5466 3.12624 16.4062 3.28471 16.4062H21.7159C21.8743 16.4062 21.9961 16.5466 21.9737 16.7035L21.6129 19.2288C21.3747 20.8966 19.9463 22.1354 18.2615 22.1354H6.73904C5.0543 22.1354 3.62593 20.8966 3.38767 19.2288L3.02691 16.7035Z" stroke="#130421" stroke-width="1.52978"/>
<path d="M8.07258 5.20798C8.07258 3.33828 9.58828 1.82258 11.458 1.82258H13.5413C15.411 1.82258 16.9267 3.33828 16.9267 5.20799V6.51006H8.07258V5.20798Z" stroke="#130421" stroke-width="1.52978"/>
<rect x="11.4587" y="13.5413" width="2.08333" height="4.16665" rx="1.01985" fill="#130421"/>
</svg>
