<svg width="8" height="7" viewBox="0 0 8 7" fill="none" xmlns="http://www.w3.org/2000/svg">
<path d="M3.45397 0.115406C3.55385 -0.03909 3.77986 -0.0390898 3.87974 0.115406L5.00123 1.85014C5.03543 1.90305 5.08812 1.94132 5.14901 1.95751L7.14539 2.48804C7.32319 2.53529 7.39303 2.75024 7.27696 2.89298L5.97369 4.49563C5.93394 4.54451 5.91382 4.60645 5.91725 4.66936L6.0296 6.73198C6.0396 6.91567 5.85675 7.04852 5.68514 6.98224L3.75819 6.23801C3.69942 6.21531 3.6343 6.21531 3.57552 6.23801L1.64857 6.98224C1.47696 7.04852 1.29411 6.91567 1.30411 6.73198L1.41646 4.66936C1.41989 4.60645 1.39977 4.54451 1.36002 4.49563L0.0567464 2.89297C-0.0593233 2.75024 0.0105194 2.53529 0.188318 2.48804L2.1847 1.95751C2.24559 1.94132 2.29828 1.90305 2.33248 1.85014L3.45397 0.115406Z" fill="#EEBE14"/>
</svg>
