<svg width="15" height="14" viewBox="0 0 15 14" fill="none" xmlns="http://www.w3.org/2000/svg">
<path d="M7.00198 0.183478C7.16027 -0.0613596 7.51845 -0.0613593 7.67673 0.183479L10.0037 3.78292C10.0579 3.86677 10.1414 3.92743 10.2379 3.95308L14.3803 5.0539C14.6621 5.12878 14.7727 5.46942 14.5888 5.69562L11.8846 9.02102C11.8216 9.09849 11.7897 9.19664 11.7952 9.29633L12.0283 13.5761C12.0441 13.8672 11.7544 14.0778 11.4824 13.9727L7.4841 12.4285C7.39096 12.3925 7.28776 12.3925 7.19462 12.4285L3.19633 13.9727C2.92436 14.0778 2.63459 13.8672 2.65045 13.5761L2.88357 9.29633C2.889 9.19664 2.85711 9.09849 2.79411 9.02102L0.0899183 5.69562C-0.0940237 5.46942 0.0166598 5.12878 0.298428 5.0539L4.44079 3.95308C4.53728 3.92743 4.62077 3.86677 4.67498 3.78292L7.00198 0.183478Z" fill="#C292FF"/>
</svg>
