<svg width="41" height="41" viewBox="0 0 41 41" fill="none" xmlns="http://www.w3.org/2000/svg">
<path d="M24.7403 11.8993L27.2615 13.284L22.68 21.8882L16.9197 18.7246C16.2369 18.3496 15.3897 18.6021 15.0235 19.2897L9.39459 29.8823C9.02845 30.5699 9.28423 31.4282 9.96707 31.8033C10.6499 32.1783 11.4971 31.9258 11.8633 31.2381L16.8256 21.8974L22.5859 25.061C23.2688 25.4361 24.116 25.1836 24.4822 24.4959L29.7343 14.6535L32.2555 16.0382C32.7983 16.3363 33.4352 15.8201 33.2565 15.2207L31.5107 9.36244C31.4105 8.97697 31.0253 8.76542 30.6487 8.87764L24.8793 10.597C24.2742 10.7773 24.1975 11.6012 24.7403 11.8993Z" fill="#190A28"/>
</svg>
