<svg width="44" height="44" viewBox="0 0 44 44" fill="none" xmlns="http://www.w3.org/2000/svg">
<g filter="url(#filter0_d_818_19622)">
<path fill-rule="evenodd" clip-rule="evenodd" d="M14.4945 6.22294H29.5053C32.2807 6.22294 34.5306 8.47286 34.5306 11.2483V26.2591C34.5306 29.0345 32.2807 31.2844 29.5053 31.2844H14.4945C11.719 31.2844 9.46912 29.0345 9.46912 26.2591V11.2483C9.46912 8.47286 11.719 6.22294 14.4945 6.22294Z" fill="white"/>
<path fill-rule="evenodd" clip-rule="evenodd" d="M34.1627 28.1509C33.4199 29.9766 31.6347 31.2672 29.546 31.2835H26.1773V28.1509H34.1627Z" fill="#FFD166"/>
<path fill-rule="evenodd" clip-rule="evenodd" d="M14.4483 31.2835C12.3619 31.265 10.5791 29.9751 9.83699 28.1509H17.8223V31.2835H14.4483Z" fill="#2BB793"/>
<rect x="17.8227" y="28.1509" width="8.35383" height="3.13269" fill="#83BDE4"/>
<path fill-rule="evenodd" clip-rule="evenodd" d="M16.3314 18.5982C16.3314 18.7672 16.3526 18.8924 16.3948 18.9738C16.437 19.0553 16.5124 19.1171 16.621 19.1593L16.259 20.3087C15.9332 20.2846 15.6678 20.2227 15.4626 20.1232C15.2575 20.0236 15.0886 19.8622 14.9558 19.639C14.6421 20.1096 14.1564 20.3449 13.4988 20.3449C13.0222 20.3449 12.6375 20.2016 12.3449 19.915C12.0523 19.6284 11.906 19.2589 11.906 18.8064C11.906 18.2694 12.1051 17.8592 12.5033 17.5756C12.9015 17.292 13.4807 17.1502 14.2409 17.1502H14.5848V17.0326C14.5848 16.7913 14.5365 16.6284 14.44 16.5439C14.3435 16.4594 14.1594 16.4172 13.8879 16.4172C13.7431 16.4172 13.5576 16.4398 13.3314 16.4851C13.1051 16.5303 12.8743 16.5922 12.639 16.6706L12.2499 15.5303C12.5455 15.4096 12.8668 15.3161 13.2137 15.2497C13.5606 15.1834 13.8759 15.1502 14.1594 15.1502C14.9196 15.1502 15.4717 15.2965 15.8156 15.5891C16.1595 15.8817 16.3314 16.3297 16.3314 16.933V18.5982ZM14.0511 19.0881C14.1597 19.0881 14.2607 19.0609 14.3542 19.0066C14.4477 18.9523 14.5247 18.8829 14.585 18.7985V18.0835H14.395C14.1416 18.0835 13.9545 18.1288 13.8339 18.2193C13.7132 18.3098 13.6529 18.4485 13.6529 18.6356C13.6529 18.7743 13.6891 18.8844 13.7615 18.9659C13.8339 19.0473 13.9304 19.0881 14.0511 19.0881ZM21.522 15.8292C21.2173 15.3767 20.7663 15.1504 20.169 15.1504C19.9277 15.1504 19.6878 15.2017 19.4495 15.3043C19.2112 15.4069 18.9955 15.5728 18.8025 15.802L18.7301 15.3314H17.1373V22.2185L18.9292 22.0375V19.8655C19.2188 20.1852 19.5928 20.3451 20.0513 20.3451C20.4314 20.3451 20.7678 20.232 21.0604 20.0058C21.353 19.7795 21.5793 19.4688 21.7392 19.0736C21.8991 18.6784 21.979 18.2305 21.979 17.7297C21.979 16.9152 21.8267 16.2817 21.522 15.8292ZM19.4637 19.0695C19.9162 19.0695 20.1424 18.6321 20.1424 17.7572C20.1424 17.3892 20.1183 17.1087 20.07 16.9156C20.0218 16.7225 19.9569 16.5943 19.8755 16.531C19.794 16.4676 19.6899 16.4359 19.5632 16.4359C19.3098 16.4359 19.0987 16.5868 18.9297 16.8884V18.7346C19.0082 18.8553 19.0896 18.9413 19.1741 18.9926C19.2586 19.0439 19.3551 19.0695 19.4637 19.0695ZM26.6714 15.5305C26.4391 15.2771 26.1208 15.1504 25.7166 15.1504C25.427 15.1504 25.166 15.2047 24.9338 15.3133C24.7015 15.4219 24.4737 15.5939 24.2505 15.8292L24.1238 15.3314H22.5581V20.1641H24.35V16.9333C24.5552 16.6135 24.7573 16.4536 24.9564 16.4536C25.0469 16.4536 25.1148 16.4868 25.16 16.5532C25.2053 16.6196 25.2279 16.7432 25.2279 16.9242V20.1641H27.0198V16.5984C27.0198 16.1399 26.9036 15.7839 26.6714 15.5305ZM31.9153 18.5985C31.9153 18.7674 31.9364 18.8926 31.9787 18.9741C32.0209 19.0555 32.0963 19.1173 32.2049 19.1596L31.8429 20.3089C31.5171 20.2848 31.2517 20.223 31.0465 20.1234C30.8414 20.0239 30.6725 19.8625 30.5397 19.6392C30.226 20.1098 29.7403 20.3451 29.0827 20.3451C28.606 20.3451 28.2214 20.2018 27.9288 19.9153C27.6362 19.6287 27.4899 19.2591 27.4899 18.8066C27.4899 18.2697 27.689 17.8594 28.0872 17.5758C28.4854 17.2923 29.0646 17.1505 29.8248 17.1505H30.1687V17.0328C30.1687 16.7915 30.1204 16.6286 30.0239 16.5441C29.9273 16.4597 29.7433 16.4174 29.4718 16.4174C29.327 16.4174 29.1415 16.4401 28.9153 16.4853C28.689 16.5306 28.4582 16.5924 28.2229 16.6708L27.8338 15.5305C28.1294 15.4099 28.4507 15.3164 28.7976 15.25C29.1445 15.1836 29.4598 15.1504 29.7433 15.1504C30.5035 15.1504 31.0556 15.2967 31.3995 15.5894C31.7434 15.882 31.9153 16.33 31.9153 16.9333V18.5985ZM29.938 19.0066C29.8445 19.0609 29.7435 19.0881 29.6349 19.0881C29.5142 19.0881 29.4177 19.0473 29.3453 18.9659C29.2729 18.8844 29.2367 18.7743 29.2367 18.6356C29.2367 18.4485 29.297 18.3098 29.4177 18.2193C29.5383 18.1288 29.7254 18.0835 29.9788 18.0835H30.1688V18.7985C30.1085 18.8829 30.0316 18.9523 29.938 19.0066Z" fill="#4D3951"/>
</g>
<defs>
<filter id="filter0_d_818_19622" x="7.96167e-05" y="0.000421386" width="43.9998" height="43.9998" filterUnits="userSpaceOnUse" color-interpolation-filters="sRGB">
<feFlood flood-opacity="0" result="BackgroundImageFix"/>
<feColorMatrix in="SourceAlpha" type="matrix" values="0 0 0 0 0 0 0 0 0 0 0 0 0 0 0 0 0 0 127 0" result="hardAlpha"/>
<feOffset dy="3.18881"/>
<feGaussianBlur stdDeviation="4.65035"/>
<feColorMatrix type="matrix" values="0 0 0 0 0 0 0 0 0 0 0 0 0 0 0 0 0 0 0.08 0"/>
<feBlend mode="normal" in2="BackgroundImageFix" result="effect1_dropShadow_818_19622"/>
<feBlend mode="normal" in="SourceGraphic" in2="effect1_dropShadow_818_19622" result="shape"/>
</filter>
</defs>
</svg>
