<svg width="286" height="44" viewBox="0 0 286 44" fill="none" xmlns="http://www.w3.org/2000/svg">
<rect width="135" height="44" rx="4" fill="white" fill-opacity="0.1"/>
<path d="M42.4813 12.6083L40.8817 9.08569L39.2908 12.6083H42.4813ZM42.6463 12.9831H39.117L38.3434 14.7002H37.8652L40.6641 8.59758H41.1078L43.9068 14.7002H43.4286L42.6463 12.9831Z" fill="white"/>
<path d="M48.2876 10.1497L46.2359 14.7002H45.7927L43.75 10.1497H44.2107L46.0188 14.2211L47.8444 10.1497H48.2876Z" fill="white"/>
<path d="M51.3436 14.1163C51.6074 13.9417 51.8059 13.6889 51.9391 13.3578V12.5035H50.3921C49.9457 12.5035 49.6225 12.5849 49.423 12.7478C49.2229 12.9102 49.1231 13.1342 49.1231 13.419C49.1231 13.7155 49.233 13.9492 49.4532 14.1206C49.6735 14.2925 49.9834 14.3782 50.3836 14.3782C50.7598 14.3782 51.0799 14.2909 51.3436 14.1163ZM51.9221 10.5463C52.223 10.8337 52.3737 11.2569 52.3737 11.8147V14.7002H51.9566V13.8896C51.8117 14.1573 51.6005 14.3649 51.3219 14.5129C51.0438 14.6614 50.7105 14.7354 50.3225 14.7354C49.8184 14.7354 49.4198 14.6161 49.1274 14.3782C48.8344 14.1397 48.6885 13.8257 48.6885 13.436C48.6885 13.0587 48.8227 12.7521 49.0923 12.5168C49.3619 12.281 49.7924 12.1634 50.3836 12.1634H51.9391V11.7971C51.9391 11.3729 51.825 11.0504 51.5957 10.8295C51.367 10.6086 51.0321 10.4984 50.5921 10.4984C50.2907 10.4984 50.002 10.5505 49.7271 10.6554C49.4516 10.7597 49.2187 10.8992 49.0271 11.0738L48.81 10.7597C49.0361 10.5564 49.3083 10.3978 49.6273 10.2844C49.9457 10.171 50.279 10.1146 50.6266 10.1146C51.1887 10.1146 51.6207 10.2583 51.9221 10.5463Z" fill="white"/>
<path d="M54.1644 10.1497H54.5991V14.7002H54.1644V10.1497ZM54.1299 8.94197C54.0604 8.87543 54.0254 8.79239 54.0254 8.69339C54.0254 8.59491 54.0604 8.51028 54.1299 8.44055C54.1995 8.37082 54.2833 8.33623 54.382 8.33623C54.4802 8.33623 54.5646 8.36977 54.6341 8.4363C54.7036 8.50337 54.7381 8.58587 54.7381 8.68487C54.7381 8.78388 54.7036 8.86798 54.6341 8.93771C54.5646 9.00744 54.4802 9.04203 54.382 9.04203C54.2833 9.04203 54.1995 9.00904 54.1299 8.94197Z" fill="white"/>
<path d="M56.4326 8.23137H56.8673V14.7002H56.4326V8.23137Z" fill="white"/>
<path d="M60.9487 14.1163C61.2124 13.9417 61.4109 13.6889 61.5441 13.3578V12.5035H59.9966C59.5502 12.5035 59.2276 12.5849 59.0275 12.7478C58.8274 12.9102 58.7276 13.1342 58.7276 13.419C58.7276 13.7155 58.8375 13.9492 59.0577 14.1206C59.278 14.2925 59.5884 14.3782 59.9881 14.3782C60.3649 14.3782 60.6849 14.2909 60.9487 14.1163ZM61.5266 10.5463C61.828 10.8337 61.9788 11.2569 61.9788 11.8147V14.7002H61.5616V13.8896C61.4167 14.1573 61.205 14.3649 60.9269 14.5129C60.6488 14.6614 60.3155 14.7354 59.927 14.7354C59.4229 14.7354 59.0243 14.6161 58.7319 14.3782C58.4394 14.1397 58.293 13.8257 58.293 13.436C58.293 13.0587 58.4278 12.7521 58.6974 12.5168C58.9664 12.281 59.3969 12.1634 59.9881 12.1634H61.5441V11.7971C61.5441 11.3729 61.4295 11.0504 61.2007 10.8295C60.9715 10.6086 60.6371 10.4984 60.1966 10.4984C59.8952 10.4984 59.607 10.5505 59.3316 10.6554C59.0567 10.7597 58.8232 10.8992 58.6321 11.0738L58.4145 10.7597C58.6406 10.5564 58.9128 10.3978 59.2318 10.2844C59.5502 10.171 59.8835 10.1146 60.2317 10.1146C60.7937 10.1146 61.2252 10.2583 61.5266 10.5463Z" fill="white"/>
<path d="M66.9596 14.0987C67.2377 13.9364 67.4564 13.7096 67.6161 13.419C67.7753 13.1284 67.855 12.7973 67.855 12.4247C67.855 12.0532 67.7753 11.7216 67.6161 11.4309C67.4564 11.1403 67.2377 10.9141 66.9596 10.7512C66.6815 10.5883 66.3684 10.5069 66.0208 10.5069C65.6732 10.5069 65.3617 10.5883 65.0862 10.7512C64.8113 10.9141 64.5937 11.1403 64.4345 11.4309C64.2748 11.7216 64.1952 12.0532 64.1952 12.4247C64.1952 12.7973 64.2748 13.1284 64.4345 13.419C64.5937 13.7096 64.8113 13.9364 65.0862 14.0987C65.3617 14.2616 65.6732 14.3431 66.0208 14.3431C66.3684 14.3431 66.6815 14.2616 66.9596 14.0987ZM67.1942 10.4068C67.536 10.6016 67.804 10.8747 67.9982 11.226C68.1925 11.5779 68.2896 11.9776 68.2896 12.4247C68.2896 12.8724 68.1925 13.2705 67.9982 13.6197C67.804 13.9683 67.536 14.2414 67.1942 14.4389C66.8524 14.6363 66.4698 14.7354 66.0468 14.7354C65.6414 14.7354 65.2746 14.6379 64.9472 14.4431C64.6197 14.2488 64.366 13.9768 64.1867 13.6282V14.7002H63.7695V8.23139H64.2042V11.1872C64.3836 10.8502 64.6357 10.5867 64.9604 10.3978C65.2847 10.2094 65.6472 10.1146 66.0468 10.1146C66.4698 10.1146 66.8524 10.212 67.1942 10.4068Z" fill="white"/>
<path d="M69.6367 8.23137H70.0714V14.7002H69.6367V8.23137Z" fill="white"/>
<path d="M72.7226 10.7118C72.4673 10.8545 72.2635 11.0546 72.1096 11.3133C71.9563 11.572 71.8676 11.8642 71.8448 12.1894H75.3215C75.3045 11.8642 75.2175 11.5736 75.0609 11.3176C74.9044 11.0621 74.6984 10.8614 74.4437 10.7161C74.1884 10.5708 73.9019 10.4984 73.5834 10.4984C73.2645 10.4984 72.9774 10.5697 72.7226 10.7118ZM75.7392 12.5296H71.8358C71.8475 12.8841 71.9372 13.1997 72.1054 13.4754C72.2736 13.7517 72.5008 13.9651 72.7879 14.1163C73.0745 14.2675 73.3977 14.3431 73.757 14.3431C74.0526 14.3431 74.3264 14.2893 74.5785 14.1818C74.8306 14.0743 75.0408 13.9156 75.209 13.7065L75.4611 13.9944C75.2637 14.2329 75.0158 14.416 74.7176 14.5437C74.4193 14.6715 74.0961 14.7354 73.7485 14.7354C73.2963 14.7354 72.8935 14.6363 72.54 14.4389C72.1866 14.2414 71.9101 13.9683 71.71 13.6197C71.5099 13.2705 71.4102 12.8724 71.4102 12.4247C71.4102 11.9834 71.5041 11.5869 71.6925 11.2351C71.8809 10.8832 72.1404 10.6086 72.4705 10.4111C72.8006 10.2136 73.1716 10.1146 73.5834 10.1146C73.9947 10.1146 74.3641 10.212 74.6916 10.4068C75.019 10.6016 75.2769 10.8731 75.4653 11.2218C75.6532 11.5704 75.7477 11.9659 75.7477 12.4077L75.7392 12.5296Z" fill="white"/>
<path d="M82.0364 14.0987C82.3118 13.9364 82.5289 13.7096 82.6881 13.419C82.8478 13.1284 82.9275 12.7973 82.9275 12.4247C82.9275 12.0532 82.8478 11.7216 82.6881 11.4309C82.5289 11.1403 82.3118 10.9141 82.0364 10.7512C81.7609 10.5883 81.4494 10.5069 81.1018 10.5069C80.7542 10.5069 80.4427 10.5883 80.1672 10.7512C79.8923 10.9141 79.6747 11.1403 79.5155 11.4309C79.3563 11.7216 79.2767 12.0532 79.2767 12.4247C79.2767 12.7973 79.3563 13.1284 79.5155 13.419C79.6747 13.7096 79.8923 13.9364 80.1672 14.0987C80.4427 14.2616 80.7542 14.3431 81.1018 14.3431C81.4494 14.3431 81.7609 14.2616 82.0364 14.0987ZM79.9417 14.4389C79.5967 14.2414 79.3255 13.9667 79.1286 13.6149C78.9317 13.2636 78.833 12.8665 78.833 12.4247C78.833 11.9834 78.9317 11.5869 79.1286 11.2351C79.3255 10.8832 79.5967 10.6086 79.9417 10.4111C80.2861 10.2136 80.673 10.1146 81.1018 10.1146C81.5306 10.1146 81.9175 10.2136 82.2625 10.4111C82.6069 10.6086 82.8781 10.8832 83.075 11.2351C83.2719 11.5869 83.3706 11.9834 83.3706 12.4247C83.3706 12.8665 83.2719 13.2636 83.075 13.6149C82.8781 13.9667 82.6069 14.2414 82.2625 14.4389C81.9175 14.6363 81.5306 14.7354 81.1018 14.7354C80.673 14.7354 80.2861 14.6363 79.9417 14.4389Z" fill="white"/>
<path d="M88.2815 10.6117C88.6121 10.9428 88.7772 11.4197 88.7772 12.0414V14.7002H88.3425V12.076C88.3425 11.5651 88.2136 11.1754 87.9557 10.9082C87.6977 10.6405 87.3374 10.5069 86.8735 10.5069C86.3402 10.5069 85.9204 10.6671 85.6131 10.9865C85.3058 11.3064 85.1524 11.7364 85.1524 12.2767V14.7002H84.7178V10.1497H85.1349V11.1344C85.2915 10.8151 85.5245 10.5649 85.8349 10.385C86.1449 10.2051 86.5111 10.1146 86.9346 10.1146C87.5024 10.1146 87.9514 10.2801 88.2815 10.6117Z" fill="white"/>
<path d="M95.0532 14.4128C94.9434 14.5176 94.8059 14.5975 94.6403 14.6523C94.4753 14.7077 94.3028 14.7354 94.1234 14.7354C93.7291 14.7354 93.425 14.6262 93.2106 14.4085C92.9962 14.1903 92.889 13.8869 92.889 13.4973V10.5245H92.0547V10.1497H92.889V9.15544H93.3236V10.1497H94.7666V10.5245H93.3236V13.4536C93.3236 13.7501 93.3947 13.9753 93.5364 14.1296C93.6787 14.2834 93.8888 14.3606 94.1669 14.3606C94.4509 14.3606 94.6854 14.2765 94.8712 14.1078L95.0532 14.4128Z" fill="white"/>
<path d="M99.826 10.6117C100.156 10.9428 100.321 11.4197 100.321 12.0414V14.7002H99.8865V12.076C99.8865 11.5651 99.7575 11.1754 99.4996 10.9082C99.2417 10.6405 98.8813 10.5069 98.4175 10.5069C97.8841 10.5069 97.4643 10.6671 97.157 10.9865C96.8497 11.3064 96.6964 11.7364 96.6964 12.2767V14.7002H96.2617V8.23137H96.6964V11.0998C96.8529 10.7858 97.0848 10.5431 97.3916 10.3717C97.6989 10.2003 98.0614 10.1146 98.4785 10.1146C99.0464 10.1146 99.4953 10.2801 99.826 10.6117Z" fill="white"/>
<path d="M102.937 10.7118C102.682 10.8545 102.478 11.0546 102.324 11.3133C102.171 11.572 102.082 11.8642 102.06 12.1894H105.536C105.519 11.8642 105.432 11.5736 105.276 11.3176C105.119 11.0621 104.913 10.8614 104.659 10.7161C104.403 10.5708 104.117 10.4984 103.798 10.4984C103.479 10.4984 103.192 10.5697 102.937 10.7118ZM105.954 12.5296H102.051C102.062 12.8841 102.152 13.1997 102.32 13.4754C102.488 13.7517 102.716 13.9651 103.003 14.1163C103.289 14.2675 103.613 14.3431 103.972 14.3431C104.267 14.3431 104.541 14.2893 104.793 14.1818C105.045 14.0743 105.256 13.9156 105.424 13.7065L105.676 13.9944C105.478 14.2329 105.231 14.416 104.932 14.5437C104.634 14.6715 104.311 14.7354 103.963 14.7354C103.511 14.7354 103.108 14.6363 102.755 14.4389C102.401 14.2414 102.125 13.9683 101.925 13.6197C101.725 13.2705 101.625 12.8724 101.625 12.4247C101.625 11.9834 101.719 11.5869 101.907 11.2351C102.096 10.8832 102.355 10.6086 102.685 10.4111C103.015 10.2136 103.386 10.1146 103.798 10.1146C104.21 10.1146 104.579 10.212 104.906 10.4068C105.234 10.6016 105.492 10.8731 105.68 11.2218C105.868 11.5704 105.963 11.9659 105.963 12.4077L105.954 12.5296Z" fill="white"/>
<path d="M44.7905 25.393H46.5758V29.4554C46.0535 29.8727 45.4438 30.1931 44.7469 30.4162C44.0501 30.6392 43.3336 30.751 42.5981 30.751C41.5621 30.751 40.6286 30.5253 39.7962 30.0739C38.9638 29.6225 38.3105 28.9992 37.8364 28.2029C37.362 27.4072 37.125 26.5092 37.125 25.5091C37.125 24.5094 37.362 23.6115 37.8364 22.8157C38.3105 22.0199 38.9663 21.3961 39.8035 20.9447C40.6403 20.4934 41.5818 20.2677 42.6273 20.2677C43.4785 20.2677 44.2534 20.4082 44.9502 20.6898C45.647 20.9714 46.2324 21.3839 46.7069 21.9273L45.5159 23.092C44.7416 22.3159 43.8081 21.9273 42.7143 21.9273C41.9978 21.9273 41.3615 22.078 40.8053 22.3787C40.2486 22.68 39.8131 23.1021 39.4986 23.6455C39.184 24.189 39.0268 24.8102 39.0268 25.5091C39.0268 26.1888 39.184 26.8004 39.4986 27.3438C39.8131 27.8878 40.2486 28.3147 40.8053 28.625C41.3615 28.9359 41.9931 29.0913 42.7 29.0913C43.4934 29.0913 44.1902 28.9162 44.7905 28.567V25.393Z" fill="white"/>
<path d="M54.023 28.4804C54.4587 28.0338 54.6763 27.4467 54.6763 26.7185C54.6763 25.9904 54.4587 25.4033 54.023 24.9567C53.5873 24.5101 53.0359 24.2871 52.3682 24.2871C51.7001 24.2871 51.1508 24.5101 50.7204 24.9567C50.2894 25.4033 50.0745 25.9904 50.0745 26.7185C50.0745 27.4467 50.2894 28.0338 50.7204 28.4804C51.1508 28.927 51.7001 29.15 52.3682 29.15C53.0359 29.15 53.5873 28.927 54.023 28.4804ZM50.2486 30.1986C49.6191 29.8585 49.1282 29.3853 48.7748 28.7785C48.4213 28.1722 48.2451 27.4856 48.2451 26.7185C48.2451 25.9515 48.4213 25.2675 48.7748 24.6655C49.1282 24.0635 49.6191 23.593 50.2486 23.2529C50.8775 22.9133 51.5838 22.7435 52.3682 22.7435C53.1616 22.7435 53.8728 22.9133 54.5022 23.2529C55.1311 23.593 55.622 24.0635 55.9755 24.6655C56.3289 25.2675 56.5057 25.9515 56.5057 26.7185C56.5057 27.4856 56.3289 28.1722 55.9755 28.7785C55.622 29.3853 55.1311 29.8585 54.5022 30.1986C53.8728 30.5382 53.1616 30.708 52.3682 30.708C51.5838 30.708 50.8775 30.5382 50.2486 30.1986Z" fill="white"/>
<path d="M63.3868 28.4804C63.822 28.0338 64.0401 27.4467 64.0401 26.7185C64.0401 25.9904 63.822 25.4033 63.3868 24.9567C62.9511 24.5101 62.3997 24.2871 61.7315 24.2871C61.0639 24.2871 60.5146 24.5101 60.0836 24.9567C59.6532 25.4033 59.4378 25.9904 59.4378 26.7185C59.4378 27.4467 59.6532 28.0338 60.0836 28.4804C60.5146 28.927 61.0639 29.15 61.7315 29.15C62.3997 29.15 62.9511 28.927 63.3868 28.4804ZM59.6118 30.1986C58.9829 29.8585 58.4915 29.3853 58.1386 28.7785C57.7851 28.1722 57.6084 27.4856 57.6084 26.7185C57.6084 25.9515 57.7851 25.2675 58.1386 24.6655C58.4915 24.0635 58.9829 23.593 59.6118 23.2529C60.2413 22.9133 60.9476 22.7435 61.7315 22.7435C62.5249 22.7435 63.2366 22.9133 63.8655 23.2529C64.4949 23.593 64.9858 24.0635 65.3393 24.6655C65.6922 25.2675 65.8689 25.9515 65.8689 26.7185C65.8689 27.4856 65.6922 28.1722 65.3393 28.7785C64.9858 29.3853 64.4949 29.8585 63.8655 30.1986C63.2366 30.5382 62.5249 30.708 61.7315 30.708C60.9476 30.708 60.2413 30.5382 59.6118 30.1986Z" fill="white"/>
<path d="M72.8593 28.0939C73.2998 27.6814 73.5201 27.1448 73.5201 26.4848C73.5201 25.8349 73.2998 25.3053 72.8593 24.8975C72.4188 24.4898 71.8552 24.2865 71.1679 24.2865C70.4716 24.2865 69.9027 24.4898 69.4622 24.8975C69.0217 25.3053 68.802 25.8349 68.802 26.4848C68.802 27.1448 69.0217 27.6814 69.4622 28.0939C69.9027 28.5064 70.4716 28.7124 71.1679 28.7124C71.8552 28.7124 72.4188 28.5064 72.8593 28.0939ZM75.3059 22.8302V29.4262C75.3059 32.1637 73.9123 33.5322 71.1244 33.5322C70.3793 33.5322 69.6729 33.4375 69.0053 33.248C68.3371 33.059 67.7857 32.7844 67.35 32.4256L68.163 31.0571C68.5016 31.3382 68.9299 31.5638 69.4479 31.7342C69.9653 31.9034 70.4907 31.9886 71.023 31.9886C71.8748 31.9886 72.499 31.7943 72.8959 31.4063C73.2924 31.0177 73.4909 30.4258 73.4909 29.6301V29.2223C73.1809 29.5619 72.8036 29.819 72.3589 29.9941C71.9136 30.1687 71.4243 30.256 70.8925 30.256C70.1569 30.256 69.4914 30.0985 68.896 29.7828C68.301 29.4677 67.8313 29.0233 67.488 28.4505C67.1446 27.8778 66.9727 27.2225 66.9727 26.4848C66.9727 25.7476 67.1446 25.0945 67.488 24.5265C67.8313 23.9586 68.301 23.5195 68.896 23.2086C69.4914 22.8983 70.1569 22.7429 70.8925 22.7429C71.4535 22.7429 71.964 22.8349 72.4241 23.0196C72.8837 23.2038 73.268 23.4854 73.5779 23.8638V22.8302H75.3059Z" fill="white"/>
<path d="M77.6855 19.8022H79.5006V30.6064H77.6855V19.8022Z" fill="white"/>
<path d="M83.7753 24.7166C83.3735 25.061 83.1294 25.5198 83.0424 26.0926H87.4414C87.3634 25.5294 87.1267 25.0733 86.7298 24.7236C86.3328 24.3744 85.8392 24.1993 85.2491 24.1993C84.6685 24.1993 84.177 24.3717 83.7753 24.7166ZM89.1397 27.3009H83.0567C83.1634 27.8736 83.4415 28.3271 83.8915 28.6624C84.3415 28.9972 84.9004 29.1644 85.5686 29.1644C86.4198 29.1644 87.1219 28.8833 87.6734 28.3202L88.6462 29.4412C88.2975 29.8585 87.857 30.1741 87.3252 30.3876C86.7929 30.6016 86.1927 30.708 85.525 30.708C84.6732 30.708 83.9228 30.5382 83.2748 30.1986C82.6263 29.8585 82.1253 29.3853 81.7718 28.7785C81.4184 28.1722 81.2422 27.4856 81.2422 26.7185C81.2422 25.9611 81.4141 25.2793 81.7575 24.673C82.1009 24.0662 82.578 23.593 83.1878 23.2529C83.797 22.9133 84.4843 22.7435 85.2491 22.7435C86.0037 22.7435 86.6788 22.9111 87.2743 23.2459C87.8692 23.5807 88.3341 24.0518 88.6679 24.6581C89.0017 25.2649 89.1689 25.9664 89.1689 26.7622C89.1689 26.8883 89.1588 27.0677 89.1397 27.3009Z" fill="white"/>
<path d="M101.059 25.5391C101.484 25.1899 101.697 24.6901 101.697 24.0397C101.697 23.3892 101.484 22.8889 101.059 22.5397C100.632 22.19 100.008 22.0154 99.1857 22.0154H96.979V26.0634H99.1857C100.008 26.0634 100.632 25.8888 101.059 25.5391ZM101.574 20.8508C102.227 21.1419 102.728 21.5592 103.076 22.1027C103.425 22.6467 103.599 23.2918 103.599 24.0397C103.599 24.7774 103.425 25.4204 103.076 25.9687C102.728 26.5175 102.227 26.9369 101.574 27.228C100.921 27.5192 100.153 27.6651 99.2727 27.6651H96.979V30.6064H95.0918V20.4138H99.2727C100.153 20.4138 100.921 20.5596 101.574 20.8508Z" fill="white"/>
<path d="M105.457 19.8022H107.272V30.6064H105.457V19.8022Z" fill="white"/>
<path d="M113.58 29.0702C113.934 28.8615 114.183 28.5629 114.328 28.1743V27.2716H112.455C111.41 27.2716 110.887 27.6165 110.887 28.3058C110.887 28.6358 111.018 28.8977 111.279 29.092C111.541 29.2863 111.904 29.3832 112.368 29.3832C112.823 29.3832 113.227 29.2788 113.58 29.0702ZM115.235 23.5658C115.84 24.1146 116.143 24.9418 116.143 26.0489V30.6063H114.429V29.6594C114.207 29.9995 113.89 30.2593 113.478 30.4387C113.067 30.618 112.571 30.708 111.991 30.708C111.41 30.708 110.902 30.6085 110.466 30.4094C110.031 30.2109 109.694 29.9341 109.457 29.5796C109.22 29.2256 109.102 28.8248 109.102 28.3782C109.102 27.6793 109.361 27.1188 109.878 26.6967C110.396 26.2741 111.211 26.0633 112.325 26.0633H114.328V25.9467C114.328 25.4033 114.166 24.986 113.841 24.6943C113.517 24.4031 113.036 24.2578 112.397 24.2578C111.962 24.2578 111.533 24.3259 111.112 24.4617C110.691 24.5974 110.335 24.7869 110.045 25.0296L109.334 23.7042C109.741 23.3939 110.229 23.156 110.8 22.991C111.371 22.826 111.976 22.7435 112.615 22.7435C113.757 22.7435 114.63 23.0176 115.235 23.5658Z" fill="white"/>
<path d="M125.579 22.8302L121.95 31.2317C121.611 32.0759 121.2 32.6705 120.716 33.0154C120.232 33.3598 119.646 33.5322 118.959 33.5322C118.572 33.5322 118.189 33.4689 117.812 33.3427C117.435 33.2166 117.125 33.042 116.883 32.819L117.609 31.4792C117.783 31.6442 117.988 31.7752 118.226 31.872C118.463 31.9694 118.703 32.0179 118.945 32.0179C119.264 32.0179 119.527 31.9354 119.735 31.7704C119.943 31.6054 120.135 31.3286 120.309 30.9405L120.44 30.6345L117.057 22.8302H118.945L121.383 28.5815L123.837 22.8302H125.579Z" fill="white"/>
<path d="M33.6375 20.8303L28.759 18.0071L24.7471 21.897L28.4138 25.4521L33.6375 22.4277C33.9251 22.2617 34.0969 21.963 34.0969 21.6298C34.0969 21.2961 33.9251 20.9975 33.6375 20.8303Z" fill="white"/>
<path d="M27.9312 17.5278L22.5625 14.4198L10.7979 8.37303L24.0859 21.2559L27.9312 17.5278Z" fill="white"/>
<path d="M10.9932 35.2314L22.5828 28.8281L27.5857 25.9319L24.0861 22.5386L10.9932 35.2314Z" fill="white"/>
<path d="M10.0125 8.89415L10 34.9121L23.4242 21.8967L10.0125 8.89415Z" fill="white"/>
<rect x="151" width="135" height="44" rx="4" fill="white" fill-opacity="0.1"/>
<path d="M164.297 18.3452C162.059 22.1821 163.482 28.0056 165.957 31.5363C167.192 33.3019 168.442 34.8867 170.156 34.8867C170.188 34.8867 170.22 34.8862 170.253 34.8845C171.058 34.8528 171.64 34.6076 172.202 34.3714C172.833 34.1053 173.486 33.8307 174.511 33.8307C175.485 33.8307 176.107 34.0968 176.708 34.3534C177.301 34.607 177.911 34.8692 178.813 34.8523C180.742 34.8172 181.927 33.107 182.972 31.5984C184.063 30.0238 184.61 28.4949 184.795 27.9101L184.802 27.8869C184.837 27.783 184.787 27.67 184.687 27.6242C184.687 27.6242 184.674 27.6186 184.671 27.6174C184.331 27.4801 181.351 26.1733 181.319 22.6127C181.29 19.7193 183.555 18.187 184.01 17.9096L184.031 17.896C184.08 17.865 184.114 17.8152 184.126 17.7587C184.137 17.7022 184.126 17.6429 184.092 17.5955C182.529 15.3343 180.133 14.9942 179.168 14.953C179.028 14.9394 178.883 14.932 178.738 14.932C177.605 14.932 176.52 15.3547 175.647 15.6948C175.045 15.9298 174.525 16.1321 174.167 16.1321C173.764 16.1321 173.241 15.927 172.636 15.6897C171.826 15.3722 170.908 15.0123 169.936 15.0123C169.913 15.0123 169.89 15.0123 169.868 15.0128C167.609 15.0456 165.474 16.3231 164.297 18.3452Z" fill="white"/>
<path d="M179.17 8.73011C177.802 8.78491 176.161 9.61716 175.18 10.7522C174.346 11.7065 173.532 13.2976 173.747 14.901C173.76 15.0016 173.843 15.079 173.945 15.0869C174.037 15.0937 174.131 15.0977 174.225 15.0977C175.563 15.0977 177.006 14.366 177.992 13.1885C179.029 11.9455 179.554 10.35 179.395 8.92051C179.382 8.80864 179.283 8.72502 179.17 8.73011Z" fill="white"/>
<path d="M197.468 14.6722C198.073 14.6722 198.608 14.553 199.07 14.3157C199.532 14.0784 199.887 13.7467 200.137 13.3207C200.387 12.8953 200.512 12.4077 200.512 11.8585C200.512 11.3099 200.387 10.8223 200.137 10.3963C199.887 9.97085 199.532 9.63919 199.07 9.40189C198.608 9.16403 198.073 9.04537 197.468 9.04537H195.389V14.6722H197.468ZM194.911 8.61993H197.506C198.186 8.61993 198.79 8.75835 199.318 9.03633C199.845 9.31375 200.255 9.69795 200.549 10.1884C200.843 10.6788 200.99 11.2353 200.99 11.8585C200.99 12.4817 200.843 13.0388 200.549 13.5292C200.255 14.0196 199.845 14.4038 199.318 14.6813C198.79 14.9587 198.186 15.0977 197.506 15.0977H194.911V8.61993Z" fill="white"/>
<path d="M205.414 14.459C205.71 14.2861 205.945 14.0454 206.116 13.737C206.288 13.4285 206.374 13.077 206.374 12.6821C206.374 12.2872 206.288 11.9357 206.116 11.6272C205.945 11.3188 205.71 11.0781 205.414 10.9052C205.118 10.7329 204.782 10.6464 204.407 10.6464C204.033 10.6464 203.697 10.7329 203.4 10.9052C203.104 11.0781 202.87 11.3188 202.698 11.6272C202.526 11.9357 202.44 12.2872 202.44 12.6821C202.44 13.077 202.526 13.4285 202.698 13.737C202.87 14.0454 203.104 14.2861 203.4 14.459C203.697 14.6319 204.033 14.7178 204.407 14.7178C204.782 14.7178 205.118 14.6319 205.414 14.459ZM203.157 14.8201C202.786 14.6104 202.494 14.3189 202.281 13.9454C202.069 13.572 201.963 13.1511 201.963 12.6821C201.963 12.2132 202.069 11.7922 202.281 11.4188C202.494 11.0459 202.786 10.7543 203.157 10.5441C203.528 10.3345 203.945 10.2294 204.407 10.2294C204.869 10.2294 205.286 10.3345 205.658 10.5441C206.029 10.7543 206.321 11.0459 206.533 11.4188C206.745 11.7922 206.852 12.2132 206.852 12.6821C206.852 13.1511 206.745 13.572 206.533 13.9454C206.321 14.3189 206.029 14.6104 205.658 14.8201C205.286 15.0297 204.869 15.1348 204.407 15.1348C203.945 15.1348 203.528 15.0297 203.157 14.8201Z" fill="white"/>
<path d="M215.15 10.2669L213.296 15.0977H212.856L211.207 10.9054L209.55 15.0977H209.119L207.265 10.2669H207.714L209.344 14.5796L211.011 10.2669H211.414L213.071 14.5699L214.719 10.2669H215.15Z" fill="white"/>
<path d="M220.076 10.7573C220.432 11.1093 220.61 11.615 220.61 12.2749V15.0977H220.142V12.3122C220.142 11.7692 220.003 11.3557 219.725 11.072C219.447 10.7884 219.058 10.6466 218.559 10.6466C217.984 10.6466 217.532 10.8161 217.201 11.1551C216.87 11.4946 216.705 11.9512 216.705 12.5252V15.0977H216.236V10.2669H216.686V11.3127C216.854 10.9737 217.105 10.7082 217.44 10.5166C217.774 10.3257 218.168 10.2296 218.625 10.2296C219.237 10.2296 219.72 10.4059 220.076 10.7573Z" fill="white"/>
<path d="M222.54 8.23121H223.008V15.0977H222.54V8.23121Z" fill="white"/>
<path d="M227.902 14.459C228.198 14.2861 228.432 14.0454 228.604 13.737C228.775 13.4285 228.862 13.077 228.862 12.6821C228.862 12.2872 228.775 11.9357 228.604 11.6272C228.432 11.3188 228.198 11.0781 227.902 10.9052C227.605 10.7329 227.269 10.6464 226.895 10.6464C226.52 10.6464 226.184 10.7329 225.888 10.9052C225.592 11.0781 225.357 11.3188 225.186 11.6272C225.013 11.9357 224.928 12.2872 224.928 12.6821C224.928 13.077 225.013 13.4285 225.186 13.737C225.357 14.0454 225.592 14.2861 225.888 14.459C226.184 14.6319 226.52 14.7178 226.895 14.7178C227.269 14.7178 227.605 14.6319 227.902 14.459ZM225.644 14.8201C225.273 14.6104 224.981 14.3189 224.769 13.9454C224.557 13.572 224.45 13.1511 224.45 12.6821C224.45 12.2132 224.557 11.7922 224.769 11.4188C224.981 11.0459 225.273 10.7543 225.644 10.5441C226.016 10.3345 226.433 10.2294 226.895 10.2294C227.357 10.2294 227.774 10.3345 228.145 10.5441C228.516 10.7543 228.808 11.0459 229.021 11.4188C229.233 11.7922 229.339 12.2132 229.339 12.6821C229.339 13.1511 229.233 13.572 229.021 13.9454C228.808 14.3189 228.516 14.6104 228.145 14.8201C227.774 15.0297 227.357 15.1348 226.895 15.1348C226.433 15.1348 226.016 15.0297 225.644 14.8201Z" fill="white"/>
<path d="M233.193 14.4777C233.478 14.2924 233.691 14.024 233.835 13.6725V12.7652H232.168C231.687 12.7652 231.339 12.8522 231.123 13.0245C230.908 13.1974 230.8 13.4347 230.8 13.737C230.8 14.0517 230.919 14.3003 231.157 14.4822C231.393 14.6641 231.728 14.7551 232.158 14.7551C232.564 14.7551 232.909 14.6624 233.193 14.4777ZM233.816 10.6877C234.141 10.9933 234.303 11.4419 234.303 12.0346V15.0975H233.854V14.237C233.698 14.5206 233.47 14.741 233.17 14.8986C232.87 15.0557 232.511 15.1348 232.093 15.1348C231.55 15.1348 231.121 15.0082 230.805 14.7551C230.49 14.502 230.332 14.1692 230.332 13.7556C230.332 13.3545 230.477 13.029 230.768 12.7793C231.058 12.5296 231.521 12.4047 232.158 12.4047H233.835V12.016C233.835 11.5657 233.711 11.2233 233.465 10.9888C233.218 10.7543 232.858 10.6368 232.383 10.6368C232.058 10.6368 231.748 10.6927 231.452 10.8035C231.155 10.9148 230.903 11.0628 230.697 11.2476L230.464 10.9148C230.707 10.6984 231 10.5306 231.344 10.4102C231.687 10.2899 232.046 10.2294 232.421 10.2294C233.026 10.2294 233.491 10.3826 233.816 10.6877Z" fill="white"/>
<path d="M239.158 14.459C239.455 14.2861 239.689 14.0454 239.861 13.737C240.033 13.4285 240.119 13.077 240.119 12.6821C240.119 12.2872 240.033 11.9357 239.861 11.6272C239.689 11.3188 239.455 11.0781 239.158 10.9052C238.862 10.7329 238.527 10.6464 238.151 10.6464C237.777 10.6464 237.441 10.7329 237.145 10.9052C236.848 11.0781 236.614 11.3188 236.442 11.6272C236.271 11.9357 236.185 12.2872 236.185 12.6821C236.185 13.077 236.271 13.4285 236.442 13.737C236.614 14.0454 236.848 14.2861 237.145 14.459C237.441 14.6319 237.777 14.7178 238.151 14.7178C238.527 14.7178 238.862 14.6319 239.158 14.459ZM240.587 8.23103V15.0975H240.128V13.959C239.934 14.3359 239.663 14.6257 239.313 14.8291C238.963 15.0325 238.567 15.1348 238.123 15.1348C237.668 15.1348 237.256 15.0297 236.887 14.8201C236.519 14.6104 236.23 14.32 236.021 13.95C235.812 13.5799 235.707 13.1573 235.707 12.6821C235.707 12.2069 235.812 11.7832 236.021 11.4097C236.23 11.0363 236.519 10.7464 236.887 10.5396C237.256 10.3328 237.668 10.2294 238.123 10.2294C238.561 10.2294 238.953 10.3317 239.299 10.5351C239.646 10.7385 239.919 11.0227 240.119 11.3866V8.23103H240.587Z" fill="white"/>
<path d="M247.887 14.459C248.184 14.2861 248.418 14.0454 248.59 13.737C248.762 13.4285 248.847 13.077 248.847 12.6821C248.847 12.2872 248.762 11.9357 248.59 11.6272C248.418 11.3188 248.184 11.0781 247.887 10.9052C247.591 10.7329 247.256 10.6464 246.881 10.6464C246.506 10.6464 246.17 10.7329 245.874 10.9052C245.577 11.0781 245.343 11.3188 245.171 11.6272C245 11.9357 244.914 12.2872 244.914 12.6821C244.914 13.077 245 13.4285 245.171 13.737C245.343 14.0454 245.577 14.2861 245.874 14.459C246.17 14.6319 246.506 14.7178 246.881 14.7178C247.256 14.7178 247.591 14.6319 247.887 14.459ZM245.63 14.8201C245.259 14.6104 244.967 14.3189 244.755 13.9454C244.542 13.572 244.437 13.1511 244.437 12.6821C244.437 12.2132 244.542 11.7922 244.755 11.4188C244.967 11.0459 245.259 10.7543 245.63 10.5441C246.002 10.3345 246.418 10.2294 246.881 10.2294C247.343 10.2294 247.759 10.3345 248.131 10.5441C248.503 10.7543 248.794 11.0459 249.007 11.4188C249.219 11.7922 249.325 12.2132 249.325 12.6821C249.325 13.1511 249.219 13.572 249.007 13.9454C248.794 14.3189 248.503 14.6104 248.131 14.8201C247.759 15.0297 247.343 15.1348 246.881 15.1348C246.418 15.1348 246.002 15.0297 245.63 14.8201Z" fill="white"/>
<path d="M254.617 10.7573C254.972 11.1093 255.151 11.615 255.151 12.2749V15.0977H254.682V12.3122C254.682 11.7692 254.543 11.3557 254.266 11.072C253.988 10.7884 253.599 10.6466 253.099 10.6466C252.525 10.6466 252.072 10.8161 251.741 11.1551C251.411 11.4946 251.245 11.9512 251.245 12.5252V15.0977H250.776V10.2669H251.226V11.3127C251.394 10.9737 251.646 10.7082 251.98 10.5166C252.314 10.3257 252.709 10.2296 253.165 10.2296C253.777 10.2296 254.26 10.4059 254.617 10.7573Z" fill="white"/>
<path d="M261.912 14.7918C261.793 14.9031 261.645 14.9879 261.467 15.0466C261.289 15.1054 261.103 15.1348 260.91 15.1348C260.485 15.1348 260.157 15.0189 259.927 14.7873C259.695 14.5562 259.58 14.2336 259.58 13.8206V10.6645H258.681V10.2667H259.58V9.21187H260.048V10.2667H261.603V10.6645H260.048V13.7742C260.048 14.089 260.124 14.3279 260.278 14.4912C260.43 14.6551 260.657 14.7364 260.956 14.7364C261.262 14.7364 261.515 14.6472 261.715 14.4681L261.912 14.7918Z" fill="white"/>
<path d="M267.055 10.7573C267.41 11.1093 267.589 11.615 267.589 12.2749V15.0977H267.12V12.3122C267.12 11.7692 266.981 11.3557 266.703 11.072C266.426 10.7884 266.037 10.6466 265.538 10.6466C264.963 10.6466 264.51 10.8161 264.179 11.1551C263.848 11.4946 263.683 11.9512 263.683 12.5252V15.0977H263.215V8.23121H263.683V11.2754C263.851 10.9426 264.101 10.685 264.432 10.5031C264.763 10.3211 265.153 10.2296 265.603 10.2296C266.215 10.2296 266.699 10.4059 267.055 10.7573Z" fill="white"/>
<path d="M270.406 10.8634C270.132 11.0148 269.912 11.2278 269.746 11.5024C269.581 11.777 269.486 12.0866 269.46 12.4324H273.207C273.188 12.0866 273.094 11.7787 272.926 11.5069C272.758 11.2351 272.536 11.0227 272.261 10.8685C271.986 10.7142 271.677 10.6368 271.334 10.6368C270.99 10.6368 270.681 10.7125 270.406 10.8634ZM273.656 12.7934H269.451C269.464 13.1697 269.561 13.5042 269.741 13.7974C269.923 14.0901 270.168 14.3172 270.477 14.4777C270.786 14.6381 271.134 14.7178 271.521 14.7178C271.839 14.7178 272.134 14.6613 272.406 14.5466C272.677 14.433 272.904 14.2647 273.085 14.0426L273.357 14.3477C273.145 14.6008 272.878 14.7952 272.556 14.9308C272.234 15.067 271.886 15.1348 271.512 15.1348C271.024 15.1348 270.59 15.0297 270.21 14.8201C269.829 14.6104 269.531 14.32 269.315 13.95C269.1 13.5799 268.992 13.1573 268.992 12.6821C268.992 12.2132 269.094 11.7922 269.296 11.4188C269.499 11.0459 269.779 10.7543 270.135 10.5441C270.491 10.3345 270.891 10.2294 271.334 10.2294C271.777 10.2294 272.175 10.3328 272.528 10.5396C272.88 10.7464 273.158 11.0346 273.361 11.4052C273.564 11.7753 273.666 12.1951 273.666 12.6635L273.656 12.7934Z" fill="white"/>
<path d="M201.157 27.8057L199.044 22.9659L196.948 27.8057H201.157ZM201.845 29.4188H196.243L195.139 31.9805H192.994L198.036 20.9104H200.084L205.142 31.9805H202.965L201.845 29.4188Z" fill="white"/>
<path d="M212.704 29.6717C213.178 29.187 213.416 28.5491 213.416 27.7586C213.416 26.9676 213.178 26.3297 212.704 25.845C212.229 25.3602 211.624 25.1173 210.887 25.1173C210.408 25.1173 209.975 25.2257 209.591 25.4416C209.207 25.658 208.903 25.9659 208.679 26.3665C208.455 26.7676 208.343 27.2315 208.343 27.7586C208.343 28.2858 208.455 28.7496 208.679 29.1502C208.903 29.5508 209.207 29.8593 209.591 30.0751C209.975 30.2915 210.408 30.3994 210.887 30.3994C211.624 30.3994 212.229 30.1571 212.704 29.6717ZM213.344 23.9788C214.001 24.337 214.515 24.8432 214.889 25.4969C215.262 26.1506 215.449 26.9044 215.449 27.7586C215.449 28.6123 215.262 29.3689 214.889 30.0277C214.515 30.687 214.001 31.1955 213.344 31.5537C212.688 31.9125 211.944 32.0916 211.111 32.0916C209.959 32.0916 209.047 31.7119 208.375 30.9531V35.0488H206.374V23.5358H208.279V24.6427C208.609 24.2421 209.017 23.9421 209.503 23.7415C209.988 23.5415 210.525 23.4409 211.111 23.4409C211.944 23.4409 212.688 23.6206 213.344 23.9788Z" fill="white"/>
<path d="M223.684 29.6717C224.159 29.187 224.396 28.5491 224.396 27.7586C224.396 26.9676 224.159 26.3297 223.684 25.845C223.209 25.3602 222.603 25.1173 221.867 25.1173C221.387 25.1173 220.955 25.2257 220.57 25.4416C220.187 25.658 219.883 25.9659 219.658 26.3665C219.434 26.7676 219.322 27.2315 219.322 27.7586C219.322 28.2858 219.434 28.7496 219.658 29.1502C219.883 29.5508 220.187 29.8593 220.57 30.0751C220.955 30.2915 221.387 30.3994 221.867 30.3994C222.603 30.3994 223.209 30.1571 223.684 29.6717ZM224.324 23.9788C224.98 24.337 225.495 24.8432 225.868 25.4969C226.242 26.1506 226.429 26.9044 226.429 27.7586C226.429 28.6123 226.242 29.3689 225.868 30.0277C225.495 30.687 224.98 31.1955 224.324 31.5537C223.668 31.9125 222.923 32.0916 222.091 32.0916C220.939 32.0916 220.027 31.7119 219.354 30.9531V35.0488H217.354V23.5358H219.258V24.6427C219.589 24.2421 219.997 23.9421 220.482 23.7415C220.968 23.5415 221.504 23.4409 222.091 23.4409C222.923 23.4409 223.668 23.6206 224.324 23.9788Z" fill="white"/>
<path d="M233.911 31.7748C233.105 31.5324 232.467 31.2109 231.998 30.8104L232.719 29.2131C233.177 29.5713 233.74 29.864 234.407 30.0905C235.074 30.3177 235.743 30.4307 236.415 30.4307C237.248 30.4307 237.869 30.299 238.28 30.0352C238.69 29.7719 238.896 29.4238 238.896 28.9916C238.896 28.6752 238.781 28.4142 238.552 28.2085C238.323 28.0029 238.032 27.8424 237.68 27.7266C237.328 27.6102 236.848 27.4786 236.239 27.3311C235.385 27.1311 234.695 26.9305 234.167 26.7299C233.639 26.5299 233.185 26.2163 232.806 25.7892C232.427 25.3621 232.238 24.7846 232.238 24.0575C232.238 23.4461 232.406 22.8896 232.743 22.389C233.078 21.8884 233.585 21.4901 234.263 21.1952C234.94 20.8997 235.77 20.7522 236.751 20.7522C237.434 20.7522 238.107 20.8364 238.768 21.0053C239.43 21.1737 240 21.4161 240.481 21.7325L239.824 23.3298C239.334 23.045 238.821 22.8292 238.288 22.6817C237.754 22.5342 237.237 22.4602 236.735 22.4602C235.914 22.4602 235.303 22.597 234.903 22.8715C234.503 23.1456 234.303 23.5094 234.303 23.9626C234.303 24.279 234.417 24.5372 234.647 24.7372C234.876 24.9377 235.167 25.0959 235.519 25.2118C235.871 25.3282 236.351 25.4598 236.96 25.6073C237.792 25.7971 238.475 25.9949 239.008 26.2005C239.542 26.4056 239.998 26.7198 240.377 27.1412C240.755 27.5633 240.945 28.1323 240.945 28.8492C240.945 29.4606 240.777 30.0143 240.441 30.5098C240.105 31.0053 239.595 31.4008 238.912 31.6957C238.229 31.9906 237.397 32.1387 236.415 32.1387C235.551 32.1387 234.716 32.0172 233.911 31.7748Z" fill="white"/>
<path d="M247.954 31.5223C247.72 31.7121 247.435 31.8545 247.099 31.9494C246.762 32.0443 246.408 32.0918 246.034 32.0918C245.095 32.0918 244.37 31.8494 243.858 31.3641C243.345 30.8793 243.089 30.1731 243.089 29.2453V25.1807H241.681V23.5993H243.089V21.6698H245.09V23.5993H247.379V25.1807H245.09V29.1979C245.09 29.6086 245.191 29.9228 245.394 30.1386C245.596 30.355 245.89 30.4629 246.274 30.4629C246.722 30.4629 247.096 30.3471 247.395 30.1149L247.954 31.5223Z" fill="white"/>
<path d="M254.982 29.6719C255.462 29.1871 255.702 28.5492 255.702 27.7588C255.702 26.9678 255.462 26.3299 254.982 25.8452C254.501 25.3604 253.893 25.1174 253.157 25.1174C252.421 25.1174 251.815 25.3604 251.341 25.8452C250.865 26.3299 250.628 26.9678 250.628 27.7588C250.628 28.5492 250.865 29.1871 251.341 29.6719C251.815 30.1572 252.421 30.3996 253.157 30.3996C253.893 30.3996 254.501 30.1572 254.982 29.6719ZM250.82 31.5381C250.127 31.1692 249.585 30.6556 249.196 29.9962C248.806 29.3374 248.611 28.5916 248.611 27.7588C248.611 26.926 248.806 26.1825 249.196 25.5288C249.585 24.8751 250.127 24.3637 250.82 23.9948C251.514 23.6258 252.293 23.4411 253.157 23.4411C254.031 23.4411 254.816 23.6258 255.51 23.9948C256.203 24.3637 256.745 24.8751 257.134 25.5288C257.523 26.1825 257.718 26.926 257.718 27.7588C257.718 28.5916 257.523 29.3374 257.134 29.9962C256.745 30.6556 256.203 31.1692 255.51 31.5381C254.816 31.9076 254.031 32.0918 253.157 32.0918C252.293 32.0918 251.514 31.9076 250.82 31.5381Z" fill="white"/>
<path d="M264.585 23.4405V25.3225C264.414 25.2909 264.259 25.275 264.12 25.275C263.341 25.275 262.733 25.4994 262.296 25.9474C261.858 26.3954 261.639 27.0412 261.639 27.8848V31.9805H259.639V23.5354H261.543V24.7688C262.12 23.8835 263.134 23.4405 264.585 23.4405Z" fill="white"/>
<path d="M268.289 25.5841C267.846 25.9582 267.577 26.4565 267.481 27.0786H272.33C272.245 26.4672 271.983 25.9717 271.546 25.592C271.108 25.2124 270.565 25.0225 269.914 25.0225C269.273 25.0225 268.732 25.2101 268.289 25.5841ZM274.203 28.391H267.497C267.614 29.0131 267.921 29.5064 268.417 29.8697C268.913 30.2335 269.53 30.4154 270.266 30.4154C271.204 30.4154 271.978 30.1098 272.586 29.4984L273.659 30.716C273.275 31.1692 272.789 31.5121 272.202 31.7438C271.616 31.976 270.954 32.0918 270.217 32.0918C269.279 32.0918 268.452 31.9076 267.737 31.5381C267.022 31.1692 266.47 30.6556 266.08 29.9962C265.691 29.3374 265.496 28.5916 265.496 27.7588C265.496 26.9362 265.685 26.1955 266.064 25.5367C266.443 24.8779 266.968 24.3637 267.641 23.9948C268.313 23.6258 269.07 23.4411 269.914 23.4411C270.746 23.4411 271.49 23.623 272.146 23.9869C272.803 24.3507 273.315 24.8621 273.683 25.5208C274.051 26.1796 274.235 26.9418 274.235 27.8063C274.235 27.943 274.224 28.1379 274.203 28.391Z" fill="white"/>
</svg>
